<?xml version="1.0" encoding="utf-8"?>
<!-- Generator: Adobe Illustrator 23.0.6, SVG Export Plug-In . SVG Version: 6.00 Build 0)  -->
<svg version="1.1" id="Layer_1" xmlns="http://www.w3.org/2000/svg" xmlns:xlink="http://www.w3.org/1999/xlink" x="0px" y="0px"
	 viewBox="0 0 970 250" style="enable-background:new 0 0 970 250;" xml:space="preserve">
<style type="text/css">
	.st0{fill:#ffffff;}
</style>
<path class="st0" d="M447.97,112.76c-17.15-11.52-33.34-22.4-33.34-43.68c0-12.61,7.56-26.09,28.78-26.09
	c18.27,0,29.74,9.24,33.16,26.72c0.08,0.38,0.41,0.65,0.81,0.65h1.45c0.23,0,0.45-0.09,0.6-0.26c0.15-0.16,0.23-0.38,0.22-0.6
	c-0.24-3.54-0.24-9.49-0.24-13.04c0-6.01,0.2-10.25,0.74-15.63c0.03-0.25-0.07-0.5-0.26-0.67c-0.19-0.17-0.45-0.25-0.7-0.21
	c-1.39,0.23-2.54,0.23-4,0.23c-4.18,0-8.34-0.78-12.75-1.61c-5.49-1.03-11.72-2.2-19.53-2.2c-26.92,0-45.72,17.85-45.72,43.42
	c0,26.93,19.29,39.78,37.94,52.21c17.93,11.95,34.87,23.23,34.87,46.1c0,21.64-16.16,31.33-32.19,31.33
	c-18.52,0-37.28-10.03-37.28-29.19c0-1.63,0.2-3.31,0.4-5.1l0.09-0.76c0.03-0.23-0.05-0.46-0.21-0.63
	c-0.16-0.17-0.38-0.27-0.62-0.27h-1.21c-0.33,0-0.62,0.19-0.75,0.48c-2.78,6.07-2.99,13.26-2.99,15.32c0,3.09,0.32,5.92,0.64,8.66
	c0.3,2.64,0.59,5.14,0.59,7.77c0,2.08,0,4.92-0.23,6.04c-0.05,0.26,0.03,0.53,0.22,0.72c0.19,0.19,0.46,0.28,0.73,0.23
	c1.39-0.23,2.05-0.23,3.5-0.23c5.25,0,9.63,0.95,14.27,1.96c5.52,1.2,11.78,2.56,20.68,2.56c30.21,0,51.31-20.2,51.31-49.12
	C486.95,138.95,467.13,125.64,447.97,112.76"/>
<path class="st0" d="M779.89,128.68c0,50.04-25.3,81.12-66.02,81.12c-40.26,0-64.29-30.87-64.29-82.57
	c0-38.65,16.84-83.78,64.29-83.78C744.33,43.46,779.89,65.78,779.89,128.68 M715.85,36.54c-56.81,0-90.75,46.48-90.75,91.42
	c0,43.75,33.21,89.01,88.78,89.01c50.62,0,90.26-39.41,90.26-89.73C804.14,76.38,765.36,36.54,715.85,36.54"/>
<path class="st0" d="M903.24,89.28c0,27.65-14.4,40.52-45.3,40.52H846.6V45.62c7.22-1.88,12.04-2.27,17.42-2.27
	C887.84,43.35,903.24,61.38,903.24,89.28 M953.28,213.98c-14.74-4.97-31.8-34.9-44.27-56.75c-7.1-12.44-12.84-22.51-16.9-26.32
	c21.36-8.07,34.07-24.74,34.07-44.83c0-30.38-23.8-50.01-60.64-50.01c-2.58,0-6.81,0.11-11.29,0.22
	c-5.15,0.13-10.98,0.28-15.06,0.28c-11.1,0-15.69,0-24.28-0.49c-0.21,0-0.45,0.07-0.62,0.22c-0.16,0.15-0.26,0.37-0.26,0.59v1.24
	c0,0.4,0.3,0.74,0.7,0.8c8.6,1.31,11.47,4.62,11.47,21.59v132.1c0,19.69-3.26,20.21-11.98,21.59c-0.4,0.06-0.69,0.4-0.69,0.8v1.23
	c0,0.22,0.09,0.43,0.25,0.58c0.16,0.15,0.37,0.26,0.6,0.22c5.12-0.23,12.25-0.49,22.01-0.49c10.4,0,18.86,0.35,22.01,0.49
	c0.23,0.04,0.44-0.07,0.61-0.22c0.16-0.15,0.25-0.37,0.25-0.59V215c0-0.4-0.29-0.73-0.69-0.8c-8.72-1.38-11.98-1.9-11.98-21.59
	v-56.02h15.4c2.78,0,6.29-0.3,10.43-0.9c4.45,4.14,9.63,13.7,12.75,19.46c0.66,1.21,1.23,2.28,1.72,3.15
	c29.68,54.66,33.03,57.97,59.78,58.97c3.07,0,4.1,0,6.43-0.25c0.42-0.04,0.73-0.39,0.73-0.8v-1.47
	C953.84,214.4,953.62,214.09,953.28,213.98"/>
<path class="st0" d="M631.09,37.3c0.08-0.25,0.04-0.52-0.12-0.73c-0.16-0.21-0.42-0.35-0.68-0.32
	c-11.92,0.22-74.21,1.23-130.24-0.05c-0.37-0.03-0.73,0.25-0.82,0.62c-1.12,4.51-2.25,8.35-3.35,12.07
	c-1.35,4.57-2.61,8.89-3.54,13.41c-0.05,0.24,0.01,0.48,0.17,0.67c0.16,0.19,0.39,0.29,0.64,0.29h1.25c0.32,0,0.61-0.18,0.75-0.47
	c7.25-15.16,18.93-15.27,57.36-15.27v145.03c0,19.7-3.23,20.21-11.85,21.58c-0.4,0.06-0.69,0.4-0.69,0.8v1.23
	c0,0.22,0.09,0.43,0.25,0.58c0.16,0.15,0.38,0.24,0.61,0.22c5.08-0.23,12.14-0.49,21.77-0.49c10.26,0,18.65,0.34,21.78,0.49
	c0.01,0,0.02,0,0.04,0c0.21,0,0.41-0.08,0.57-0.22c0.16-0.15,0.25-0.36,0.25-0.59v-1.23c0-0.4-0.29-0.73-0.69-0.8
	c-8.61-1.37-11.84-1.88-11.84-21.58V47.53c44.09,0.02,50,1.71,50,8.29c0,1.2-0.25,2.63-0.47,3.49c-0.06,0.24-0.01,0.5,0.15,0.69
	c0.15,0.2,0.39,0.31,0.65,0.31h1.51c0.4,0,0.74-0.28,0.81-0.66C626.09,55.76,628.94,43.93,631.09,37.3"/>
<path class="st0" d="M380.42,36.26c-4.88,0.23-14.59,0.47-22.98,0.47c-8.8,0-18.7-0.24-23.94-0.47c-0.2-0.03-0.44,0.07-0.61,0.22
	c-0.16,0.15-0.25,0.36-0.25,0.58v1.18c0,0.4,0.29,0.74,0.69,0.8c8.67,1.35,14.4,2.25,14.4,20.81v107.23
	c0,20.21-9.85,42.01-25.76,42.01c-2.91,0-5.67-0.22-8.38-0.65c-11.08-2.69-17.92-10.25-22.11-15.71c-0.59-0.77-1.14-1.54-1.67-2.3
	c-4.57-6.6-6.66-12.46-6.75-12.71c-0.19-0.53-0.71-0.83-1.33-0.73c-0.56,0.13-0.93,0.65-0.87,1.23l3.68,28.19
	c0,0.37,0.2,0.71,0.51,0.9c10.33,6.57,23.22,8.56,25.65,8.75l-0.01,0.05c4.12,0.62,7.45,0.76,9.58,0.76c1.61,0,2.54-0.08,2.59-0.08
	c26.47,0,44.26-21.06,44.26-52.41V59.86c0-18.03,4.36-18.93,13.04-20.73l0.45-0.09c0.38-0.08,0.65-0.41,0.65-0.79v-1.18
	c0-0.22-0.09-0.43-0.26-0.59C380.87,36.33,380.64,36.24,380.42,36.26"/>
<path class="st0" d="M160.37,77.52l-6.3-3.79c0.87-3.87,4.87-20.02,14.91-30.64c10.31-10.9,22.63-14.47,33.53-14.57
	c5.9-0.05,11.4,0.83,15.88,1.82c0.53,0.12,1.04,0.23,1.54,0.34c4.31,0.95,8.77,1.81,11.97,1.05c1.71-0.41,3.18-1.11,4.26-1.63
	c0.68-0.33,1.39-0.67,1.54-0.59c0.02,0.01,0.05,0.05,0.07,0.13c0.16,0.68-0.51,2.85-2.48,5.52c-1.27,1.7-2.82,2.66-3.94,3.36
	c-1.01,0.62-1.74,1.07-1.74,1.73c0,0.33,0.34,0.92,0.94,2c1.93,3.41,5.94,10.52,5.46,20.5c-0.73,15.35-8.21,21.95-13.17,26.32
	l-0.6,0.53l-0.06,0.02c-3.28,3.74-2.88,7.14-1.92,9.37c1.44,3.35,4.62,6.09,8.72,7.51c2.35,0.82,4.9,1.1,6.77,1.31
	c1.4,0.16,2.73,0.3,2.88,0.61c0.45,0.91-0.85,2.39-3.64,4.18c-2.06,1.32-4.3,1.56-4.33,1.56c-0.06,0.01-0.12,0.05-0.13,0.11
	c-0.02,0.06,0,0.13,0.05,0.17c0.06,0.05,5.66,4.78,6.24,11.27c0.59,6.59-0.44,10.21-3.8,13.35c-2.7,2.52-6.6,2.86-8.09,2.49
	c-0.32-0.08-0.42-0.17-0.42-0.2c-0.22-0.82,1.06-1.68,2.54-2.68c0.33-0.22,0.67-0.45,1.01-0.69c1.92-1.34,3-3.55,2.37-4.82
	c-0.19-0.39-0.56-0.49-0.99-0.45c-0.33,0.03-0.71,0.14-1.08,0.24c-0.78,0.23-1.59,0.46-2,0.01c-0.46-0.5-0.29-0.88,0.12-1.71
	c0.32-0.65,0.73-1.46,0.81-2.63c0.19-2.47-0.11-9.05-3.74-9.79c-0.14-0.03-0.28,0-0.38,0.09c-0.34,0.28-0.35,1.11-0.37,2.36
	c-0.02,1.66-0.05,3.94-1.04,5.44c-1.52,2.32-3.91,4.07-5.06,4.09c-0.25,0-0.43-0.07-0.55-0.24c-0.15-0.22-0.04-0.75,0.12-1.55
	c0.39-1.9,1.12-5.44,0.07-12.01c-0.37-2.32-1.78-4.8-3.13-7.2c-1.31-2.32-2.55-4.51-2.82-6.42c-0.49-3.53-0.06-4.98,1.95-6.48
	c1.16-0.86,1.39-1.69,1.38-2.23c-0.01-0.53-0.3-1.53-1.26-1.89c-0.04-0.01-0.08-0.02-0.12-0.04c-0.01,0-0.02,0-0.03-0.01
	c-0.47-0.11-1.35-0.19-2.18-0.18c-3.8,0.04-12.68,0.13-18.97-8.24c-5.1-6.79-5.48-13.16-4.47-20.65c0-0.02,0-0.04,0-0.05
	c-0.02-0.12-0.58-2.94-2.98-5.07c-1.16-1.03-2.33-1.59-3.18-2.01c-0.5-0.24-1.03-0.49-1.04-0.65c0-0.02,0.02-0.1,0.15-0.23
	c0.64-0.64,2.77-1.49,5.72-1.06c2.23,0.34,3.79,1.2,3.81,1.21c0.07,0.04,0.15,0.02,0.2-0.04c0.06-0.07,5.83-6.75,15.51-6.02
	c5.77,0.44,11.29,5.98,11.44,11.99c0.15,6.06-2.71,9.18-5.21,10.02c-2.01,0.68-3.88,0.63-5-0.15c-0.51-0.36-0.82-0.84-0.85-1.36
	c-0.03-0.5,0.44-0.75,1.26-1.16c1.4-0.69,3.51-1.74,3.78-5.54c0.13-1.93-0.55-3.9-1.83-5.25c-0.9-0.96-2.51-2.07-5.13-1.97
	c-3.38,0.14-6.14,1.45-7.99,3.8c-2.36,3-3.17,7.61-2.26,12.98c1.32,7.77,8.96,13.19,17.43,12.34c4.97-0.5,9.63-3.23,13.12-7.68
	c3.31-4.22,5.24-9.63,5.31-14.85c0.15-13-7.53-26.41-25.05-27.05c-16.81-0.61-27.2,9.61-31.98,15.71
	c-2.96,3.79-6.09,11.02-8.35,16.9c1.01-0.18,4.27-0.61,7.16,0.79c2.94,1.42,6.43,4.92,5.83,6.41c-0.17,0.42-1.07,0.19-2.31-0.14
	c-1.7-0.44-4.11-0.31-6.86,0.04c-4.61,0.59-6.51,1.47-7.02,1.95 M235.59,165.66c-1.49,8.74-6.57,12.44-10.83,13
	c-0.35,0.04-0.68,0.07-1,0.07c-1.25,0-2.23-0.34-2.48-0.9c-0.1-0.23-0.12-0.42-0.05-0.59c0.14-0.34,0.61-0.51,1.32-0.77
	c0.85-0.3,2.01-0.73,3.23-1.68c3.62-2.81,3.43-4.09,3.29-5.02c-0.02-0.11-0.05-0.18-0.12-0.21c-0.22-0.12-0.77,0.16-1.41,0.49
	l-0.28,0.14c-0.82,0.41-1.62,0.48-2.18,0.2c-0.34-0.17-0.56-0.47-0.64-0.85c-0.08-0.42,0.39-0.83,0.98-1.35
	c0.47-0.41,1.01-0.88,1.36-1.43c1.84-2.87,2.19-6.27,0.75-8.99c-1.07-2.01-2.57-3.9-7.03-4.35c-0.09-0.01-0.19,0-0.28-0.01
	c0-0.01-0.11-0.01-0.17,0c-0.56,0-1.18,0.07-1.83,0.22c-4.93,0.91-8.28,4.18-10.49,7.67c-0.03,0.05-0.06,0.1-0.1,0.15
	c-3.04,4.4-3.79,11.15-3.97,12.47l0.01,0.04c-0.98,6.18-3.04,15.27-16.2,31.33c-1.49,1.82-2.72,4.46-1.94,7.43
	c1.36,5.15,6.41,5.6,6.37,6.13c-0.04,0.71-1.1,0.78-2.96,0.64c-1.86-0.13-2.53-0.73-2.53-0.73s-0.48,1.17,2.6,3.37
	c2.37,1.69,5.04,1.6,5.11,2.34c0.08,0.89-14.58,4.23-15.49-10.27c-0.02-0.34-0.04-0.67-0.05-0.99
	c-15.79,14.19-20.44,14.92-21.57,13.4c-0.53-0.73,1-0.57,4.01-3.93c3.09-3.45,3.18-4.98,3.18-4.98s-6.16,3.27-13.29,2.63
	c-7.29-0.65-13.42-5.69-12.93-7.65c0.42-1.68,4.75,1.2,9.99,0.39c4.82-0.75,5.27-2.63,5.27-2.63s-0.94-0.01-2.54-1.63
	c-1.61-1.61-3.94-2.95-2.62-4.32c0.75-0.78,4.4,0.84,8.01,0.85c4.56,0,7.45-1,7.45-1s-1.88-0.66-3.82-2.53
	c-1.96-1.87-2.37-3.8-1.78-4.29c0.32-0.27,1.11,1.24,3.64,1.19c2.97-0.07,3.32-0.72,3.32-0.72s-1.27-1.12-1.83-2.23
	c-0.57-1.12-2.33-4.39-1.21-5.65c0.35-0.41,3.72,3.68,8.67,4.13c8.53,0.76,17.92-5.91,17.92-5.91s-4.6,5.57-14.45,13.86
	c-6.3,5.31-14.21,9.62-13.76,10.62c0.54,1.23,6.77-0.18,17.5-9.01c3.44-2.84,5.63-4.69,10.33-10.34c8.3-9.99,10.16-20.99,8.51-29.79
	l-0.02,0.01c-0.66-3.45-1.59-6.59-2.7-9.19c-4.6-9.77-9.61-14.54-17.88-17.67c-7.38-2.79-13.07-0.25-16.46,1.27
	c-1.75,0.78-2.9,1.3-3.38,0.64c-1.53-2.09,1.53-4.94,4.23-7.46c3.43-3.21,5.73-4.47,6.32-4.77c-0.59-0.29-2.86-1.36-4.99-1.5
	c-1.1-0.07-2.35,0.11-3.46,0.28c-1.74,0.26-3.12,0.47-3.29-0.37c-0.35-1.71,6.68-4.73,10.52-5.97c3.88-1.25,6.99-1.39,7.54-1.41
	c-0.09-0.82-0.71-7.16,0-16.44c0.38-4.88,1.28-8.27,1.98-10.25c0.87-2.49,1.91-4.22,2.86-4.75c0.38-0.21,0.73-0.23,1.03-0.05
	c0.64,0.37,0.63,1.63,0.6,3.53c-0.01,1.16-0.03,2.61,0.11,4.18c0.42,4.65,1.96,7.23,2.84,7.77c0.15,0.09,0.28,0.12,0.37,0.08
	c0.34-0.15,0.43-0.72,0.57-1.58c0.18-1.12,0.43-2.64,1.36-4.53c1.55-3.15,4.52-6.92,5.57-6.61c0.26,0.08,0.37,0.38,0.34,0.9
	c-0.1,1.48-0.32,2.77-0.55,4.14c-0.48,2.82-1.02,6.01-0.73,11.96c0.43,8.72,4.57,9.89,5.08,10c0.26-0.45,2.29-3.89,5.16-6.88
	c0.61-0.64,1.2-1.29,1.77-1.92c1.82-2.01,3.27-3.61,4.29-3.61c0.03,0,0.06,0,0.09,0.01c0.29,0.02,0.52,0.19,0.71,0.49
	c0.36,0.57-0.23,1.97-1.2,4.29c-1.33,3.17-3.34,7.96-4.2,13.9c-1.64,11.3,0.02,22.24,0.04,22.35l0.12,0.79l-0.27-0.75
	c-0.01-0.03-1-2.68-5.06-8.53c-1.82-2.63-3.25-4.17-4.64-5.66c-1.75-1.88-3.4-3.66-5.69-7.42c-2.65-4.36-3.3-7.61-3.73-9.77
	c-0.36-1.82-0.54-2.73-1.61-2.83c-0.12-0.02-0.22,0.06-0.31,0.21c-0.9,1.43-0.41,9.31,2.05,14.02c1.32,2.53,2.89,4.52,4.7,6.83
	c1.86,2.36,3.96,5.03,6.5,9.07c4.61,7.35,6.91,12.79,8.03,16.06c0.27,0.8,0.49,1.5,0.66,2.13c0.56-1.08,1.48-2.37,1.72-2.63
	c8.17-8.82,15.25-9.43,20.15-8.27l0.07,0.01c3.55,0.72,6.68,2.74,8.89,5.81C235.19,157.15,236.28,161.64,235.59,165.66
	 M233.84,210.05c-0.01,0.05-0.04,0.13-0.07,0.25c-1.76,6.2-5.69,10.49-11.05,12.06c-1.67,0.49-3.21,0.72-4.67,0.72
	c-3.58,0-6.64-1.35-9.86-3.36c-0.22-0.04-2.03-0.33-3.85,0.66c-0.93,0.51-1.6,1.16-2.09,1.63c-0.44,0.43-0.7,0.69-0.95,0.61
	c-0.1-0.03-0.19-0.13-0.26-0.3c-0.26-0.67-0.25-2.49,0.9-4.57c0.72-1.28,1.53-2.09,1.79-2.33c-0.37-0.82-2.67-6.46,0.3-12.68
	c2.01-4.2,7.26-6.46,11.24-4.84c4.02,1.64,5.27,4.64,5.11,6.72c-0.12,1.72-0.73,3.1-1.62,3.7c-0.42,0.28-0.88,0.36-1.28,0.21
	c-0.5-0.18-0.53-0.74-0.57-1.45c-0.06-1.18-0.14-2.8-2.35-3.98c-1.12-0.59-2.41-0.67-3.55-0.21c-0.84,0.34-1.96,1.12-2.59,2.92
	c-0.83,2.4-0.73,4.68,0.29,6.6c1.26,2.35,3.88,4.11,7.39,4.93c5.17,1.21,10.58-2.56,12.31-8.6c0.51-1.8,0.78-3.94,0.11-6.16
	c-1.36-4.45-4.48-8.54-11.99-12.1c-2.59-1.22-7.87-3.51-9.96-4.43c1.15-3.24,1.29-4.27,1.67-5.39c0.68-1.09,2.63-2.86,4.48-3.29
	c2.17-0.5,4.68,0.56,4.6,0.96c-0.07,0.38-2.89,1.06-4.5,4.69c0.63,0.25,5.94,1.69,10.51,4.58c7.68,4.86,9.77,10.05,10.41,12.3
	C234.86,203.75,234.67,207.24,233.84,210.05 M159.53,90.8c-4.61-4.18-8.38-5.3-8.38-5.3v-7.88c2.18,1.05,7.29,3.71,10.24,6.1
	c2.89,2.34,5.08,4.69,6.87,6.65L167,98.36C164.95,96.08,162.21,93.24,159.53,90.8 M153.65,105.18c-1.35-9.04-0.78-13.3-0.78-13.3
	c2.06,0.71,5.56,4.1,6.78,5.38c0,0-0.25,1.19,0.62,6.8c0.65,4.19,1.93,8.08,2.41,9.68l-6.46,2.97
	C155.61,114.64,154.38,110.07,153.65,105.18 M158.58,159.55c0.75,6,5.85,11.73,13.08,10.94c3.1-0.34,5.27-1.72,6.77-3.27l-0.49-0.39
	l0.12-0.13c-0.97-0.87-4.34-3.99-7.11-7.44c-2.69-3.36-4.01-5.2-4.26-5.55l-0.79-1.07c0.07-0.05,0.96-0.7,3.65-0.59
	c2.94,0.11,5.81,2.36,6.61,3.05l0.02,0.01c0.01,0.02,1.36,1.5,5.78,6.02c5.24,5.36,9.04,7.92,9.63,8.31c0.02,1.55-0.44,4.56-1,6.66
	l-0.03-0.01c-2.4-1.26-5.56-3.85-7.08-5.09c-0.21-0.18-0.38-0.32-0.53-0.43c-1.9,2.27-4.77,4.56-9.01,5.68
	c-1,0.24-2.05,0.37-3.13,0.35c-9.4-0.26-15.65-7.08-17.19-13.81c-0.58-2.53-0.36-5.68-0.26-7.86c0.1-1.92,0.18-3.59-0.25-4.82
	c-0.49-1.41-1.18-2.33-1.63-2.94c-0.44-0.59-0.73-0.98-0.45-1.31c0.5-0.59,2.13-0.24,3.65,0.78c0.97,0.64,1.38,1.35,1.54,1.75
	c0.9-1.33,5.27-7.14,12.75-7.42c2.55-0.09,4.83,0.45,6.59,1.58c1.42,0.91,2.45,2.16,2.82,3.44c0.29,1.03,0.3,1.84-0.42,2.2
	c-0.36,0.18-1.17-0.17-2.25-0.69c-1.57-0.76-4.06-1.59-6.99-1.25c-2.33,0.27-5.67,1.85-7.91,4.77
	C158.96,153.44,158.19,156.39,158.58,159.55 M103.34,224.96c-9.28,1.56-26.91-0.88-26.91-0.88l-9.08-28.84c0,0,9.43,8.74,14.4,12.58
	c4.97,3.85,9.6,5.94,16.63,5.94c7.03,0,11.82-1.75,16.96-7.17c5.14-5.41,7.11-12.41,8.4-20.63c0.92-5.93,0.51-22.37,0.51-26.22
	l1.3-89.33c0,0,0.65-19.27-0.77-24.12c-1.41-4.86-4.37-8.39-6.17-10.23c-3.96-4.04-12.34-5.38-12.34-5.38
	c-2.44-0.39-2.94-1.55-2.76-2.72c0.26-1.71,1.78-1.99,1.78-1.99l59.46,0.12c0,0,1.48,0.16,1.74,1.87c0.18,1.16-0.32,2.33-2.77,2.72
	c0,0-8.38,1.34-12.34,5.38c-1.8,1.84-4.75,5.37-6.17,10.23c-1.41,4.85-0.77,24.12-0.77,24.12v89.54c0,0,0.21,17.26-2.05,26.36
	c-1.59,6.35-5.27,18.79-15.03,27.44C118.5,221.6,111.65,223.56,103.34,224.96 M60.72,209.19c-3.25,6.73-8.65,12.63-9.64,11.69
	c-0.83-0.8,0.24-1.49,0.77-3.47c0.54-2.05,0.69-2.45,0.69-2.45s-1.48,2.04-6.63,5.2c-5.15,3.16-6.11,3.4-6.95,2.15
	c-0.55-0.82,0.76-1.68,2-3.8c1.19-2.06,0.84-1.95,0.84-1.95s-4.4-0.4-7.99-1.97c-3.61-1.57-7.41-5.21-7.29-5.96
	c0.15-0.98,1.63-1.5,4.36-2.84c2.88-1.4,4.9-3.25,4.9-3.25s-1.95-0.46-3.01-0.95c-1.74-0.81-3.48-1.65-2.39-2.68
	c0.95-0.9,5.61,2.18,12.69-4.38c6.26-5.79,6.28-14.33,6.28-14.33s3.06,9.93-0.99,17.85c-4.97,9.74-14.25,9.8-13.25,11.83
	c1.25,2.52,12.64,0.24,17.54-11.42c4.1-9.76-0.21-22.16-3.34-29.49c-0.9-2.1-2.08-4.94-2.85-7.14c2.85,1.25,5.15,1.89,7.48,2.15
	l0.01-0.03c0.01,0.01,0.02,0.02,0.02,0.04c0.06,0,0.39,0.63,0.39,0.63c2.76,4.32,7.04,5.85,9.3,6.69c2.16,0.8,4.48,1.2,6.8,1.19
	c2.01-0.01,4.06-0.3,5.96-1.01c1.21-0.45,2.42-1.08,3.33-2.03c2.73-2.88,3.45-11.87,4.68-12.52c0.57-0.31,1.96,1.89,2.5,3.55
	c0.53,1.67,0.27,3.32,1.3,3.71c0.74,0.27,1.2-0.54,2.76-2.33c2.19-2.54,1.87-3.55,2.98-3.14c1.1,0.41-0.07,5.96-0.61,8.97
	c-0.54,3.03-2.03,7.42-2.03,7.42s3.68-2.35,7.09-3.85c9.56-4.22,13.31-2.91,13.38-1.77c0.06,1.14-2.18,1.35-4.68,4.23
	c-1.81,2.09-1.35,2.62-1.35,2.62s1.43,0.04,5.43-1.09c2.84-0.81,5.29-2.08,6.11-0.92c0.81,1.17-2.9,6.06-8.61,9.94
	c-5.72,3.89-10.38,5.34-10.38,5.34s1.1,1.14,3.92,1.63c2.82,0.49,3.96,0.07,4.21,0.88c0.32,1.09-2.8,2.01-8.16,2.55
	c-7.58,0.77-11.51-2.48-11.51-2.48s0.97,2.69-0.17,5.43c-1.15,2.76-1.42,5.33-2.53,5.17c-1.13-0.16,0.22-2.76-1.9-5.35
	c-2.3-2.79-4.89-3.37-8.79-6.33c-3.8-2.87-3.92-5.11-3.92-5.11s6.63,2.45,17.49,0.75c10.44-1.62,13.65-4.7,12.88-5.83
	c-0.7-1.03-2.4,0.3-7.34,1.39c-5.76,1.27-13.54,0.93-22.16-0.49c-3.06-0.5-7.16-1.91-10.9-4.34c1.45,2.82,3.88,7.95,4.42,11.59
	C64.77,195.4,63.98,202.45,60.72,209.19 M53.99,117.46c0.43-2.79,2.05-5.72,3.04-7.01c3.78-0.69,6.23,1.38,6.56,1.7
	c-2.07,3.92-3.39,8.24-4.54,12.61C57.68,124.17,55.68,122.26,53.99,117.46 M54.94,146.8c-1.95-0.18-6.92-3.46-7.21-4.29
	c-0.03-1.73,0.45-5.52,1.1-7.74c2.47,4.24,6.58,6.07,6.58,6.07C54.72,143.65,54.94,146.8,54.94,146.8 M34.57,109.23
	c0.5-1.34,0.93-2.3,1.3-3.14c0.8-1.8,1.29-2.89,1.48-5.44c0.23-2.91-0.71-5.15-1.28-5.73c0.73,0.09,3.08,1.07,3.99,2.95
	c0.77,1.58,1.89,5.65,1.73,6.3c-0.04,0.16,0.05,0.23,0.09,0.26c0.16,0.1,0.28,0.01,0.81-0.38c1.59-1.17,6.44-4.74,14.96-4.78h0.11
	c15.72,0,22.62,14.28,22.69,14.42l0.03,0.07l0.08,0.02c0.09,0.02,2.16,0.59,6.33-1.18c1.63-0.69,2.62-1.55,3.58-2.37
	c1.58-1.36,2.94-2.54,6.79-2.65c3.86-0.14,6.75,2.01,7.27,3.53c0.12,0.35,0.17,0.85-0.3,1.18c-0.58,0.4-0.68,0.35-1.03,0.18
	c-0.53-0.25-1.42-0.67-4.31-0.22c-2.39,0.37-3.52,2.54-4.71,4.84c-1.28,2.48-2.61,5.05-5.64,5.85c-2.76,0.74-6.04-1.13-6.62-2.08
	c-0.16-0.26-0.41-0.6-0.73-0.55c-0.31,0.06-0.39,0.48-0.41,0.58c0,0.02-0.09,2.38-1.58,6.48c-1.38,3.78-7.71,12.86-20.21,9.55
	c-7.63-2.02-10.61-9.05-10.29-13.39c0.11-1.43,0.58-2.37,1.24-2.44c0.56-0.07,1.03,0.34,1.17,0.75c0.57,1.65,1.16,3.23,2.05,4.61
	c1.24,1.92,3.54,4.19,6.26,4.77c6.19,1.33,10.01-1.78,10.71-2.41c2.37-2.14,3.66-5.73,3.45-9.59c-0.27-4.91-2.93-8.06-5.12-9.84
	c-2.78-2.25-6.37-3.57-9.87-3.62c-0.09,0-0.18,0-0.27,0c-4.54,0-9.18,1.8-12.78,4.97c-4.52,3.98-7.2,9.93-7.74,17.19
	c-0.46,6.21,2.13,13.13,6.76,18.06c3.61,3.84,8.08,5.98,12.58,6.02h0.25c11.85,0,19.51-7.17,27.61-14.76
	c7.58-7.1,15.42-14.44,27.69-17.77c0.91-0.24,5.13-0.63,6.04-0.67l-0.22,6.56c-6.89,1.26-16.46,5.6-15.98,10.28
	c0.47,4.63,3.5,7.11,4.95,8.3c0.32,0.27,0.66,0.54,0.69,0.6c-0.02,0.04-0.16,0.16-0.59,0.32c-1.33,0.48-4.34,0.82-6.73-0.27
	c-3.17-1.45-6.29-6.53-6.33-6.58l-0.13-0.21l-0.17,0.17c-0.09,0.1-9.49,9.72-14.59,13.38c-3.3,2.37-12.07,8.68-22.43,8.22
	c-7.15-0.31-13.78-3.52-18.66-9.02c-5.12-5.77-7.88-13.73-7.77-22.4C30.9,120.33,31.78,116.74,34.57,109.23 M57.44,26.24
	c0.07-0.01,7.4-0.63,14.36,2.12c3.06,1.21,5.26,2.74,7.2,4.08l0.05,0.03c2.87,1.99,5.14,3.56,8.38,2.58
	c3.68-1.11,4.4-3.93,4.89-5.82c0.11-0.44,0.33-1.27,0.49-1.34c0.17-0.06,0.82,0.19,1.41,1.06c0.68,1.01,2.51,4.82-2.35,11.7
	c-2.7,3.8-7.05,4.58-7.23,4.61c-0.18,0.03-0.35,0.14-0.46,0.3c-0.1,0.16-0.13,0.35-0.08,0.53c0.26,0.96,0.31,1.67,0.36,2.38
	c0.18,2.39-0.04,4.65-1.67,8.5c-2.47,5.86-7.46,9.51-14.03,10.27c-6.38,0.74-11.54-2.77-13.37-6.62c-1.68-3.56-1.78-7.73-0.26-11.45
	c0.38-0.92,1.02-1.67,1.56-1.81c0.24-0.06,0.45,0,0.67,0.18c0.53,0.44,0.57,1.51,0.62,2.9c0.05,1.4,0.12,3.15,0.77,5.02
	c0.99,2.87,4.18,5.58,8.38,5.18c6.29-0.57,10.12-4.95,10.26-11.7c0.14-7.1-4.5-15.51-18-15.82c-0.18,0-0.35-0.01-0.52-0.01
	c-5.11,0-9.79,1.94-13.52,5.6c-4.37,4.29-7.14,10.81-7.24,17.01c-0.2,12.11,6.2,19.16,11.61,22.94c5.45,3.8,14,4.05,24.72,0.71
	c3.64-1.13,7.59-2.74,11.4-4.3l0.04-0.02c3.22-1.31,6.55-2.67,9.74-3.76c1.88-0.64,3.87-1.15,5.93-1.52l0.31-0.06l-0.19-0.24
	c-0.84-1.06-1.89-2.49-3.22-4.3c-2.75-3.76-3.55-10.74-2.64-12.2c0.4-0.64,0.84-0.73,1.01-0.74c0.16-0.01,0.26,0.04,0.28,0.04
	c0,0.05,0.02,0.43,0.01,0.49c-0.03,0.35,0.02,1.94,0.76,2.79c0.97,1.11,2.31,1.31,2.85,1.03c0.21-0.11,0.35-0.25,0.41-0.45
	c0.17-0.59,1.14-3.62,2.82-6.02c1.4-2,5.75-5.12,8.26-5.12c0.07,0,0.14,0,0.2,0.01c0.68,0.05,1.15,0.34,1.42,0.9
	c0.34,0.69-0.74,1.8-1.1,2.17c-2.23,2.3-4.83,5.66-5.04,11.32c-0.1,2.64,0.67,4.84,2.29,6.52c3.07,3.19,8.27,3.56,9.3,3.6v5.8
	c-0.16-0.01-0.32-0.02-0.48-0.02c-5.21,0-9.31,6.14-10.73,12.45c-1.15,5.12-0.14,12.39,0.31,14.54c0.41,1.99,0.05,2.43-0.08,2.51
	c-0.06,0.04-0.16,0.08-0.35,0.04c-1.1-0.23-3.09-2.48-5.34-6.01c-1.65-2.6-1.18-5.82-0.92-7.55c0.15-0.98,0.21-1.39-0.17-1.66
	l-0.07-0.05c-0.23-0.18-0.55-0.38-0.95-0.39c-0.02,0-0.03,0-0.05,0c-0.51,0-1.04,0.31-1.63,0.94c-0.47,0.51-0.74,0.91-0.91,1.17
	c-0.26,0.38-0.26,0.38-0.96,0.13c-0.03-0.01-0.08-0.03-0.12-0.16c-0.45-1.26,0.98-5.74,2.83-8.87c1.48-2.51,3.06-4.32,5.28-6.04
	l0.65-0.5l-0.8,0.18c-7.5,1.68-15.06,4.62-19.7,7.69c-5.94,3.91-10.74,8.57-14.28,13.84c-0.65-0.39-1.22-0.69-2.77-1.38
	c-0.96-0.43-2.41-0.89-3.51-1.02c1.48-1.93,3.97-4.58,5.01-5.67l0.09-0.1c0.14-0.23,0.12-0.54-0.06-0.76
	c-0.18-0.22-0.49-0.3-0.75-0.2c-0.28,0.11-6.96,2.63-18.8-1.72C40.42,83.19,30.39,73,30.97,54.96
	C31.57,36.67,44.7,27.35,57.44,26.24 M16.16,240h234.2V10H16.16V240z"/>
</svg>
