<?xml version="1.0" encoding="utf-8"?>
<!-- Generator: Adobe Illustrator 24.0.2, SVG Export Plug-In . SVG Version: 6.00 Build 0)  -->
<svg version="1.1" id="Layer_1" xmlns="http://www.w3.org/2000/svg" xmlns:xlink="http://www.w3.org/1999/xlink" x="0px" y="0px"
	 viewBox="0 0 1634 500" style="enable-background:new 0 0 1634 500;" xml:space="preserve">
<style type="text/css">
	.st0{clip-path:url(#SVGID_2_);fill:#990000;}
	.st1{clip-path:url(#SVGID_2_);}
</style>
<g>
	<defs>
		<rect id="SVGID_1_" width="1634" height="500"/>
	</defs>
	<clipPath id="SVGID_2_">
		<use xlink:href="#SVGID_1_"  style="overflow:visible;"/>
	</clipPath>
	<path class="st0" d="M295.34,159.82l-11.74-7.2c1.61-7.36,9.07-38.03,27.77-58.2c19.21-20.71,42.16-27.49,62.46-27.68
		c11-0.1,21.24,1.58,29.59,3.47c0.99,0.22,1.94,0.44,2.87,0.64c8.02,1.8,16.34,3.43,22.31,1.99c3.19-0.78,5.93-2.12,7.93-3.1
		c1.27-0.62,2.58-1.27,2.87-1.12c0.04,0.02,0.09,0.09,0.12,0.24c0.29,1.3-0.95,5.41-4.62,10.48c-2.36,3.23-5.24,5.05-7.35,6.37
		c-1.88,1.18-3.23,2.04-3.23,3.28c0,0.62,0.62,1.75,1.76,3.8c3.59,6.49,11.06,19.97,10.18,38.93c-1.36,29.16-15.3,41.69-24.53,49.98
		l-1.11,1.01l-0.11,0.04c-6.11,7.11-5.36,13.56-3.57,17.79c2.68,6.36,8.61,11.56,16.26,14.26c4.38,1.55,9.13,2.09,12.61,2.49
		c2.62,0.3,5.08,0.58,5.37,1.15c0.84,1.73-1.58,4.55-6.79,7.94c-3.84,2.51-8.02,2.96-8.06,2.96c-0.12,0.01-0.21,0.1-0.25,0.22
		c-0.03,0.12,0,0.25,0.09,0.33c0.11,0.09,10.55,9.08,11.62,21.4c1.1,12.52-0.83,19.39-7.09,25.36c-5.04,4.78-12.3,5.44-15.07,4.72
		c-0.59-0.15-0.77-0.32-0.79-0.37c-0.41-1.56,1.97-3.19,4.73-5.08c0.62-0.42,1.26-0.86,1.89-1.32c3.57-2.55,5.59-6.75,4.42-9.17
		c-0.36-0.74-1.03-0.92-1.84-0.85c-0.62,0.06-1.33,0.26-2.01,0.46c-1.46,0.43-2.97,0.87-3.72,0.02c-0.85-0.95-0.54-1.68,0.22-3.25
		c0.6-1.24,1.35-2.78,1.52-5c0.36-4.7-0.21-17.19-6.97-18.59c-0.27-0.06-0.52,0-0.71,0.17c-0.64,0.54-0.66,2.11-0.69,4.48
		c-0.04,3.16-0.1,7.49-1.93,10.33c-2.83,4.41-7.29,7.74-9.42,7.77c-0.47,0.01-0.8-0.14-1.02-0.44c-0.28-0.41-0.08-1.42,0.22-2.93
		c0.73-3.62,2.1-10.35,0.13-22.81c-0.69-4.4-3.31-9.11-5.84-13.67c-2.44-4.4-4.75-8.56-5.25-12.19c-0.92-6.71-0.11-9.47,3.63-12.31
		c2.16-1.64,2.6-3.21,2.58-4.23c-0.01-1.01-0.56-2.9-2.35-3.59c-0.07-0.03-0.15-0.04-0.22-0.07c-0.02-0.01-0.04-0.01-0.06-0.01
		c-0.88-0.2-2.51-0.36-4.06-0.34c-7.08,0.07-23.63,0.25-35.35-15.64c-9.5-12.89-10.2-25-8.33-39.22c0-0.03,0-0.07-0.01-0.1
		c-0.04-0.23-1.07-5.58-5.56-9.63c-2.15-1.95-4.34-3.03-5.93-3.81c-0.94-0.46-1.91-0.94-1.93-1.23c0-0.04,0.04-0.19,0.28-0.44
		c1.2-1.22,5.15-2.84,10.66-2.01c4.16,0.64,7.07,2.28,7.1,2.3c0.13,0.07,0.29,0.04,0.38-0.08c0.11-0.14,10.87-12.82,28.9-11.43
		c10.74,0.83,21.03,11.35,21.3,22.77c0.28,11.5-5.05,17.45-9.7,19.04c-3.75,1.3-7.23,1.2-9.31-0.27c-0.96-0.68-1.52-1.6-1.58-2.59
		c-0.05-0.94,0.81-1.43,2.35-2.21c2.61-1.32,6.55-3.31,7.05-10.52c0.25-3.67-1.02-7.4-3.41-9.97c-1.68-1.82-4.67-3.94-9.55-3.75
		c-6.29,0.26-11.44,2.76-14.89,7.22c-4.41,5.7-5.91,14.47-4.22,24.66c2.45,14.76,16.7,25.05,32.46,23.44
		c9.26-0.95,17.94-6.14,24.45-14.6c6.17-8.02,9.77-18.3,9.88-28.2c0.29-24.7-14.03-50.16-46.67-51.38
		c-31.3-1.16-50.68,18.26-59.57,29.84c-5.52,7.19-11.35,20.94-15.55,32.09c1.88-0.35,7.96-1.17,13.33,1.5
		c5.48,2.7,11.98,9.34,10.86,12.18c-0.32,0.81-1.99,0.36-4.31-0.26c-3.17-0.85-7.66-0.59-12.78,0.08
		c-8.59,1.12-12.14,2.79-13.09,3.7 M435.47,327.23c-2.78,16.59-12.24,23.63-20.17,24.69c-0.64,0.08-1.26,0.13-1.85,0.13
		c-2.33,0-4.16-0.64-4.62-1.71c-0.19-0.44-0.22-0.81-0.1-1.12c0.26-0.65,1.13-0.97,2.46-1.46c1.58-0.58,3.74-1.38,6.01-3.18
		c6.75-5.34,6.4-7.77,6.14-9.55c-0.03-0.21-0.1-0.34-0.22-0.4c-0.42-0.23-1.44,0.3-2.63,0.92l-0.53,0.27
		c-1.53,0.78-3.01,0.91-4.06,0.38c-0.64-0.33-1.05-0.88-1.2-1.6c-0.16-0.79,0.72-1.57,1.83-2.56c0.88-0.78,1.87-1.67,2.54-2.72
		c3.42-5.45,4.08-11.91,1.4-17.08c-1.99-3.82-4.78-7.4-13.09-8.26c-0.16-0.02-0.35-0.01-0.52-0.01c0.01-0.01-0.2-0.02-0.32-0.01
		c-1.04-0.01-2.2,0.14-3.41,0.42c-9.2,1.74-15.42,7.95-19.54,14.57c-0.06,0.09-0.12,0.2-0.18,0.29c-5.66,8.36-7.06,21.17-7.4,23.69
		l0.01,0.07c-1.82,11.74-5.67,29.01-30.19,59.51c-2.78,3.46-5.06,8.48-3.61,14.11c2.53,9.77,11.94,10.63,11.88,11.64
		c-0.09,1.36-2.05,1.48-5.52,1.22c-3.46-0.26-4.72-1.38-4.72-1.38s-0.9,2.23,4.84,6.41c4.42,3.22,9.39,3.04,9.52,4.45
		c0.15,1.68-27.17,8.02-28.86-19.51c-0.04-0.64-0.07-1.27-0.09-1.88c-29.42,26.94-38.09,28.34-40.18,25.46
		c-0.99-1.38,1.86-1.08,7.46-7.47c5.75-6.54,5.92-9.46,5.92-9.46s-11.48,6.22-24.76,5c-13.58-1.23-25.01-10.8-24.09-14.54
		c0.78-3.2,8.85,2.29,18.62,0.74c8.97-1.42,9.82-5,9.82-5s-1.74-0.02-4.74-3.09c-2.99-3.07-7.33-5.61-4.88-8.22
		c1.41-1.48,8.19,1.6,14.93,1.61c8.5,0,13.89-1.91,13.89-1.91s-3.5-1.26-7.13-4.81c-3.66-3.55-4.42-7.22-3.31-8.14
		c0.6-0.51,2.07,2.36,6.79,2.26c5.52-0.13,6.19-1.37,6.19-1.37s-2.37-2.13-3.42-4.24c-1.07-2.12-4.35-8.34-2.26-10.73
		c0.65-0.77,6.93,6.99,16.16,7.85c15.89,1.44,33.38-11.23,33.38-11.23s-8.58,10.57-26.92,26.33
		c-11.73,10.09-26.47,18.27-25.64,20.18c1.01,2.33,12.62-0.34,32.6-17.11c6.41-5.39,10.49-8.91,19.24-19.64
		c15.45-18.98,18.93-39.87,15.86-56.58l-0.03,0.01c-1.23-6.55-2.95-12.51-5.03-17.46c-8.57-18.56-17.9-27.63-33.31-33.56
		c-13.75-5.3-24.34-0.47-30.67,2.42c-3.26,1.48-5.41,2.46-6.3,1.22c-2.85-3.97,2.85-9.39,7.88-14.17
		c6.39-6.09,10.67-8.49,11.77-9.05c-1.1-0.56-5.33-2.59-9.3-2.85c-2.04-0.13-4.39,0.22-6.45,0.53c-3.25,0.49-5.82,0.88-6.12-0.71
		c-0.66-3.25,12.44-8.99,19.59-11.33c7.23-2.37,13.02-2.64,14.05-2.67c-0.17-1.55-1.32-13.6,0-31.22c0.7-9.26,2.39-15.7,3.68-19.47
		c1.62-4.72,3.56-8.01,5.34-9.02c0.7-0.4,1.35-0.43,1.93-0.09c1.19,0.71,1.17,3.1,1.12,6.72c-0.03,2.21-0.06,4.95,0.2,7.94
		c0.78,8.83,3.66,13.74,5.29,14.77c0.29,0.18,0.53,0.24,0.69,0.16c0.64-0.29,0.81-1.37,1.07-3.01c0.34-2.12,0.8-5.02,2.53-8.61
		c2.89-5.98,8.43-13.14,10.37-12.57c0.49,0.15,0.69,0.72,0.63,1.72c-0.19,2.81-0.6,5.27-1.03,7.87c-0.89,5.36-1.9,11.43-1.35,22.73
		c0.8,16.56,8.52,18.78,9.46,18.99c0.49-0.86,4.27-7.39,9.61-13.08c1.14-1.22,2.24-2.45,3.3-3.64c3.39-3.82,6.09-6.85,7.99-6.85
		c0.05,0,0.11,0,0.16,0.01c0.53,0.05,0.98,0.36,1.33,0.93c0.67,1.08-0.43,3.74-2.24,8.16c-2.47,6.02-6.22,15.12-7.82,26.41
		c-3.06,21.46,0.04,42.24,0.07,42.45l0.22,1.5l-0.5-1.42c-0.02-0.05-1.87-5.09-9.42-16.2c-3.39-5-6.06-7.92-8.64-10.75
		c-3.26-3.57-6.34-6.95-10.61-14.1c-4.94-8.28-6.14-14.46-6.94-18.55c-0.67-3.46-1.01-5.19-3-5.38c-0.22-0.03-0.4,0.11-0.58,0.39
		c-1.69,2.72-0.76,17.68,3.81,26.64c2.46,4.81,5.38,8.58,8.76,12.96c3.46,4.48,7.38,9.55,12.11,17.23
		c8.59,13.96,12.87,24.3,14.96,30.51c0.51,1.52,0.91,2.86,1.23,4.04c1.05-2.05,2.76-4.5,3.21-4.99
		c15.21-16.76,28.42-17.92,37.54-15.7l0.13,0.03c6.62,1.36,12.45,5.21,16.55,11.04C434.72,311.07,436.76,319.59,435.47,327.23
		 M432.2,411.54c-0.03,0.09-0.08,0.25-0.14,0.47c-3.28,11.78-10.59,19.92-20.58,22.92c-3.12,0.94-5.99,1.36-8.69,1.36
		c-6.67,0-12.37-2.57-18.37-6.38c-0.41-0.07-3.78-0.63-7.16,1.25c-1.74,0.96-2.99,2.2-3.89,3.1c-0.82,0.82-1.3,1.31-1.77,1.15
		c-0.19-0.05-0.36-0.25-0.49-0.58c-0.49-1.26-0.47-4.74,1.68-8.67c1.34-2.44,2.85-3.97,3.33-4.43c-0.69-1.56-4.98-12.26,0.56-24.08
		c3.74-7.97,13.52-12.27,20.93-9.19c7.49,3.11,9.81,8.82,9.52,12.77c-0.24,3.27-1.36,5.9-3.02,7.03c-0.79,0.54-1.63,0.68-2.38,0.41
		c-0.94-0.35-0.99-1.4-1.05-2.75c-0.11-2.24-0.26-5.31-4.38-7.55c-2.08-1.13-4.48-1.27-6.61-0.39c-1.56,0.64-3.65,2.12-4.82,5.55
		c-1.55,4.55-1.36,8.88,0.54,12.53c2.34,4.47,7.23,7.8,13.77,9.37c9.63,2.31,19.7-4.87,22.93-16.34c0.96-3.41,1.46-7.47,0.2-11.7
		c-2.52-8.45-8.35-16.23-22.34-22.98c-4.82-2.33-14.65-6.67-18.55-8.42c2.13-6.15,2.4-8.11,3.11-10.23c1.27-2.07,4.9-5.43,8.34-6.24
		c4.04-0.96,8.73,1.06,8.58,1.82c-0.13,0.72-5.39,2.01-8.38,8.91c1.18,0.49,11.06,3.2,19.58,8.71c14.3,9.24,18.2,19.09,19.39,23.36
		C434.11,399.58,433.76,406.21,432.2,411.54 M293.78,185.05c-8.59-7.95-15.62-10.07-15.62-10.07V160c4.06,2,13.58,7.04,19.07,11.59
		c5.38,4.45,9.47,8.92,12.79,12.63l-2.32,15.18C303.88,195.07,298.77,189.66,293.78,185.05 M282.83,212.36
		c-2.51-17.18-1.45-25.26-1.45-25.26c3.83,1.35,10.35,7.8,12.63,10.22c0,0-0.47,2.26,1.17,12.91c1.22,7.96,3.59,15.35,4.48,18.39
		l-12.04,5.63C286.48,230.33,284.18,221.65,282.83,212.36 M292.02,315.63c1.4,11.4,10.89,22.28,24.36,20.77
		c5.77-0.64,9.82-3.27,12.61-6.21l-0.92-0.74l0.22-0.25c-1.81-1.65-8.09-7.57-13.24-14.12c-5.01-6.39-7.47-9.88-7.93-10.54
		l-1.46-2.04c0.13-0.11,1.78-1.33,6.79-1.13c5.48,0.22,10.82,4.49,12.32,5.79l0.03,0.02c0.02,0.03,2.54,2.84,10.78,11.44
		c9.76,10.18,16.84,15.04,17.94,15.78c0.03,2.94-0.81,8.66-1.87,12.65l-0.05-0.03c-4.48-2.4-10.36-7.31-13.19-9.67
		c-0.4-0.34-0.72-0.61-0.99-0.83c-3.54,4.31-8.88,8.66-16.79,10.8c-1.86,0.46-3.81,0.71-5.83,0.66
		c-17.5-0.49-29.15-13.45-32.03-26.23c-1.08-4.81-0.67-10.8-0.47-14.93c0.18-3.65,0.33-6.82-0.46-9.17
		c-0.91-2.67-2.2-4.42-3.05-5.58c-0.82-1.12-1.36-1.85-0.83-2.49c0.93-1.11,3.96-0.45,6.79,1.48c1.81,1.22,2.57,2.57,2.87,3.33
		c1.68-2.52,9.83-13.57,23.76-14.09c4.75-0.17,8.99,0.86,12.27,3.01c2.65,1.73,4.56,4.11,5.24,6.53c0.55,1.97,0.56,3.49-0.78,4.17
		c-0.67,0.33-2.18-0.32-4.19-1.31c-2.93-1.45-7.56-3.02-13.02-2.38c-4.34,0.52-10.57,3.52-14.73,9.07
		C292.72,304.01,291.28,309.63,292.02,315.63 M189.11,439.88c-17.28,2.97-50.13-1.67-50.13-1.67l-16.92-54.78
		c0,0,17.57,16.59,26.82,23.9c9.26,7.31,17.88,11.3,30.98,11.3c13.09,0,22.02-3.32,31.6-13.62c9.58-10.29,13.25-23.57,15.65-39.18
		c1.72-11.26,0.95-42.49,0.95-49.8l2.41-169.67c0,0,1.2-36.61-1.45-45.82c-2.63-9.22-8.13-15.93-11.49-19.42
		c-7.38-7.67-22.99-10.22-22.99-10.22c-4.54-0.74-5.49-2.95-5.15-5.16c0.48-3.24,3.31-3.77,3.31-3.77l110.77,0.23
		c0,0,2.76,0.3,3.24,3.55c0.34,2.21-0.6,4.42-5.15,5.16c0,0-15.61,2.55-22.99,10.22c-3.35,3.49-8.86,10.2-11.5,19.42
		c-2.63,9.21-1.43,45.82-1.43,45.82v170.08c0,0,0.4,32.79-3.83,50.06c-2.96,12.06-9.82,35.69-28.01,52.13
		C217.34,433.49,204.59,437.21,189.11,439.88 M109.71,409.91c-6.05,12.79-16.11,23.99-17.96,22.2c-1.55-1.52,0.44-2.83,1.43-6.59
		c1.02-3.89,1.28-4.66,1.28-4.66s-2.75,3.89-12.36,9.89c-9.59,6.01-11.38,6.46-12.95,4.08c-1.03-1.55,1.42-3.19,3.72-7.22
		c2.21-3.92,1.57-3.7,1.57-3.7s-8.2-0.76-14.88-3.73c-6.72-2.99-13.8-9.9-13.58-11.32c0.27-1.86,3.03-2.85,8.12-5.39
		c5.37-2.66,9.12-6.16,9.12-6.16s-3.62-0.89-5.61-1.81c-3.23-1.54-6.48-3.12-4.45-5.09c1.77-1.71,10.44,4.14,23.64-8.31
		c11.66-11,11.71-27.22,11.71-27.22s5.69,18.86-1.84,33.91c-9.26,18.5-26.55,18.61-24.68,22.47c2.34,4.79,23.54,0.46,32.67-21.69
		c7.64-18.53-0.39-42.09-6.21-56.02c-1.67-3.99-3.88-9.39-5.3-13.57c5.32,2.39,9.58,3.59,13.94,4.1l0.03-0.06
		c0.01,0.02,0.03,0.04,0.04,0.07c0.11,0.01,0.73,1.19,0.73,1.19c5.14,8.21,13.13,11.11,17.32,12.7c4.03,1.53,8.35,2.28,12.67,2.27
		c3.75-0.01,7.55-0.57,11.09-1.92c2.26-0.86,4.51-2.05,6.2-3.86c5.09-5.46,6.43-22.54,8.72-23.79c1.07-0.58,3.65,3.59,4.65,6.75
		c1,3.17,0.5,6.31,2.43,7.05c1.38,0.52,2.23-1.03,5.15-4.42c4.08-4.82,3.49-6.75,5.55-5.97c2.05,0.79-0.14,11.33-1.13,17.03
		c-1.01,5.75-3.78,14.09-3.78,14.09s6.85-4.45,13.21-7.31c17.81-8.01,24.79-5.52,24.91-3.36c0.12,2.17-4.06,2.56-8.71,8.04
		c-3.36,3.96-2.52,4.98-2.52,4.98s2.67,0.07,10.11-2.07c5.29-1.53,9.85-3.96,11.37-1.75c1.51,2.21-5.4,11.51-16.04,18.88
		c-10.67,7.39-19.33,10.14-19.33,10.14s2.05,2.17,7.31,3.1c5.25,0.93,7.37,0.13,7.85,1.67c0.6,2.07-5.22,3.82-15.2,4.85
		c-14.12,1.46-21.44-4.72-21.44-4.72s1.82,5.1-0.32,10.32c-2.15,5.23-2.64,10.12-4.72,9.81c-2.1-0.31,0.42-5.23-3.54-10.17
		c-4.28-5.3-9.11-6.4-16.39-12.03c-7.08-5.45-7.31-9.71-7.31-9.71s12.34,4.65,32.58,1.43c19.45-3.07,25.43-8.93,23.99-11.07
		c-1.31-1.96-4.48,0.57-13.68,2.64c-10.73,2.42-25.23,1.77-41.29-0.93c-5.7-0.95-13.34-3.63-20.3-8.24
		c2.7,5.36,7.23,15.1,8.22,22.02C117.25,383.73,115.77,397.1,109.71,409.91 M97.17,235.69c0.81-5.3,3.81-10.87,5.66-13.31
		c7.04-1.31,11.6,2.63,12.22,3.23c-3.85,7.44-6.31,15.65-8.45,23.95C104.04,248.43,100.32,244.8,97.17,235.69 M98.93,291.41
		c-3.64-0.33-12.89-6.58-13.42-8.15c-0.06-3.28,0.83-10.48,2.05-14.69c4.61,8.05,12.25,11.53,12.25,11.53
		C98.53,285.42,98.93,291.41,98.93,291.41 M60.99,220.05c0.93-2.54,1.73-4.36,2.43-5.96c1.49-3.42,2.4-5.49,2.76-10.33
		c0.43-5.54-1.32-9.78-2.38-10.88c1.36,0.17,5.73,2.03,7.43,5.61c1.45,3.01,3.53,10.73,3.23,11.98c-0.07,0.3,0.09,0.44,0.16,0.49
		c0.29,0.19,0.52,0.02,1.52-0.73c2.97-2.23,11.99-9.01,27.87-9.08h0.2c29.29,0,42.14,27.12,42.27,27.4l0.06,0.14l0.15,0.05
		c0.16,0.04,4.02,1.11,11.79-2.24c3.04-1.32,4.88-2.94,6.67-4.51c2.94-2.59,5.48-4.82,12.66-5.04c7.19-0.26,12.57,3.82,13.54,6.71
		c0.23,0.68,0.31,1.61-0.57,2.24c-1.07,0.76-1.27,0.66-1.92,0.35c-0.99-0.47-2.65-1.27-8.02-0.41c-4.46,0.7-6.55,4.83-8.76,9.2
		c-2.39,4.72-4.86,9.59-10.51,11.11c-5.15,1.4-11.24-2.14-12.33-3.95c-0.31-0.5-0.77-1.14-1.36-1.04c-0.58,0.12-0.73,0.9-0.76,1.11
		c0,0.05-0.17,4.52-2.95,12.3c-2.58,7.18-14.37,24.43-37.65,18.13c-14.22-3.84-19.77-17.18-19.17-25.43c0.2-2.72,1.08-4.5,2.3-4.64
		c1.05-0.12,1.91,0.64,2.18,1.42c1.06,3.12,2.15,6.14,3.81,8.76c2.32,3.66,6.6,7.96,11.66,9.07c11.53,2.53,18.64-3.38,19.96-4.59
		c4.41-4.07,6.82-10.88,6.43-18.21c-0.49-9.33-5.46-15.31-9.54-18.68c-5.17-4.28-11.87-6.78-18.39-6.88c-0.17,0-0.34,0-0.51,0
		c-8.46,0-17.11,3.42-23.8,9.43c-8.42,7.57-13.41,18.86-14.42,32.66c-0.86,11.8,3.96,24.94,12.59,34.3
		c6.73,7.3,15.05,11.36,23.43,11.44c0.16,0,0.31,0,0.46,0c22.07,0,36.34-13.62,51.43-28.04c14.13-13.49,28.73-27.44,51.58-33.75
		c1.69-0.46,9.56-1.2,11.24-1.28l-0.4,12.47c-12.83,2.39-30.66,10.64-29.78,19.52c0.88,8.8,6.51,13.51,9.22,15.77
		c0.6,0.5,1.23,1.03,1.29,1.13c-0.03,0.07-0.29,0.31-1.1,0.6c-2.49,0.9-8.08,1.57-12.53-0.51c-5.9-2.74-11.72-12.39-11.78-12.49
		l-0.24-0.39l-0.32,0.33c-0.17,0.18-17.67,18.46-27.18,25.42c-6.15,4.5-22.48,16.48-41.78,15.61c-13.32-0.59-25.66-6.68-34.76-17.13
		c-9.54-10.96-14.68-26.07-14.47-42.54C54.15,241.12,55.8,234.3,60.99,220.05 M103.6,62.4c0.14-0.02,13.78-1.2,26.75,4.03
		c5.7,2.3,9.8,5.2,13.42,7.76l0.08,0.06c5.35,3.78,9.58,6.76,15.61,4.9c6.87-2.11,8.21-7.47,9.1-11.05
		c0.21-0.85,0.61-2.42,0.91-2.56c0.31-0.11,1.53,0.36,2.62,2.01c1.26,1.91,4.68,9.16-4.39,22.22c-5.03,7.22-13.13,8.7-13.47,8.76
		c-0.34,0.05-0.65,0.26-0.85,0.57c-0.19,0.3-0.24,0.67-0.15,1c0.48,1.82,0.57,3.17,0.67,4.52c0.33,4.55-0.08,8.84-3.12,16.15
		c-4.61,11.13-13.89,18.06-26.14,19.51c-11.87,1.4-21.5-5.26-24.9-12.58c-3.14-6.76-3.31-14.68-0.48-21.75
		c0.7-1.75,1.9-3.17,2.91-3.43c0.45-0.11,0.84,0,1.24,0.34c0.99,0.84,1.06,2.88,1.15,5.51c0.1,2.67,0.22,5.99,1.43,9.54
		c1.84,5.45,7.79,10.6,15.62,9.85c11.72-1.1,18.86-9.4,19.11-22.23c0.26-13.49-8.38-29.46-33.54-30.05
		c-0.33-0.01-0.65-0.01-0.98-0.01c-9.53,0-18.23,3.68-25.18,10.63c-8.14,8.15-13.31,20.53-13.49,32.32
		c-0.37,23,11.56,36.39,21.63,43.57c10.16,7.23,26.09,7.7,46.05,1.36c6.79-2.15,14.13-5.21,21.24-8.16l0.08-0.03
		c6-2.5,12.21-5.08,18.14-7.14c3.5-1.22,7.21-2.19,11.04-2.89l0.57-0.1l-0.36-0.45c-1.57-2.01-3.53-4.73-6-8.17
		c-5.12-7.14-6.61-20.4-4.92-23.17c0.74-1.22,1.57-1.39,1.89-1.4c0.3-0.02,0.49,0.08,0.51,0.08h0c0.01,0.1,0.03,0.81,0.02,0.92
		c-0.05,0.66,0.03,3.69,1.42,5.31c1.82,2.11,4.3,2.5,5.32,1.95c0.39-0.2,0.65-0.48,0.76-0.85c0.33-1.11,2.12-6.87,5.26-11.43
		c2.61-3.8,10.71-9.74,15.38-9.74c0.13,0,0.26,0.01,0.38,0.01c1.27,0.1,2.14,0.65,2.65,1.71c0.63,1.31-1.38,3.43-2.04,4.12
		c-4.16,4.36-8.99,10.74-9.38,21.49c-0.18,5.02,1.25,9.19,4.26,12.39c5.72,6.07,15.4,6.76,17.32,6.83v11.02
		c-0.3-0.02-0.6-0.03-0.9-0.03c-9.7,0-17.34,11.66-19.98,23.65c-2.14,9.73-0.26,23.54,0.57,27.61c0.77,3.79,0.08,4.61-0.14,4.77
		c-0.12,0.08-0.29,0.15-0.65,0.09c-2.05-0.45-5.76-4.72-9.94-11.42c-3.08-4.94-2.19-11.06-1.72-14.35c0.27-1.86,0.38-2.63-0.32-3.15
		l-0.13-0.1c-0.43-0.34-1.02-0.72-1.77-0.75c-0.03,0-0.06,0-0.09,0c-0.94,0-1.94,0.58-3.04,1.79c-0.87,0.96-1.37,1.73-1.7,2.23
		c-0.48,0.72-0.48,0.72-1.79,0.25c-0.05-0.02-0.14-0.05-0.23-0.3c-0.84-2.39,1.83-10.89,5.28-16.84c2.76-4.77,5.7-8.2,9.83-11.47
		l1.21-0.96l-1.5,0.34c-13.98,3.18-28.05,8.78-36.71,14.6c-11.06,7.43-20,16.27-26.59,26.28c-1.22-0.74-2.27-1.31-5.16-2.63
		c-1.79-0.82-4.49-1.7-6.53-1.94c2.76-3.67,7.4-8.7,9.33-10.76l0.17-0.19c0.26-0.45,0.22-1.02-0.11-1.45
		c-0.34-0.42-0.9-0.57-1.4-0.38c-0.52,0.21-12.97,5-35.02-3.27c-17.86-6.69-36.55-26.05-35.46-60.32
		C55.41,82.22,79.86,64.52,103.6,62.4 M26.71,468.43H463V31.57H26.71V468.43z"/>
	<path class="st0" d="M548.64,349.91c-6.92,10.1-13.45,19.64-26.23,19.64c-7.57,0-15.66-4.45-15.66-16.95
		c0-10.76,5.55-17.52,16.04-19.53c0.23-0.04,0.39-0.24,0.39-0.48v-0.85c0-0.14-0.06-0.26-0.15-0.35c-0.1-0.09-0.23-0.14-0.36-0.13
		c-2.12,0.14-5.69,0.14-7.83,0.14c-3.61,0-6.15-0.12-9.39-0.44c-0.15-0.01-0.3,0.04-0.4,0.15c-0.1,0.11-0.15,0.27-0.12,0.41
		c0.13,0.82,0.13,1.5,0.13,2.35c0,2.46-0.47,4.91-0.96,7.51c-0.62,3.23-1.32,6.9-1.32,11.5c0,15.85,10.72,26.92,26.07,26.92
		c16.17,0,23.89-11.36,31.35-22.34c7.17-10.56,13.95-20.53,27.68-20.53c12.99,0,18.81,9.52,18.81,18.96
		c0,10.91-6.02,21.95-17.53,21.95c-0.98,0-1.99-0.11-3.06-0.23l-0.46-0.05c-0.14-0.01-0.27,0.03-0.38,0.12
		c-0.1,0.09-0.16,0.22-0.16,0.36v0.71c0,0.19,0.11,0.36,0.29,0.44c3.65,1.64,7.97,1.76,9.2,1.76c1.85,0,3.55-0.19,5.2-0.38
		c1.59-0.18,3.08-0.35,4.67-0.35c1.25,0,2.95,0,3.63,0.13c0.16,0.03,0.32-0.02,0.43-0.13c0.11-0.11,0.17-0.27,0.14-0.43
		c-0.14-0.82-0.14-1.21-0.14-2.06c0-3.09,0.57-5.67,1.18-8.4c0.72-3.25,1.54-6.94,1.54-12.18c0-17.79-12.13-30.22-29.5-30.22
		C564.37,326.96,556.37,338.63,548.64,349.91"/>
	<path class="st0" d="M558.2,154.44c30.05,0,48.71,14.9,48.71,38.88c0,23.71-18.53,37.86-49.58,37.86
		c-23.21,0-50.31-9.92-50.31-37.86C507.03,175.39,520.43,154.44,558.2,154.44 M502.88,192.16c0,33.45,27.91,53.44,54.89,53.44
		c26.27,0,53.44-19.56,53.44-52.28c0-29.81-23.67-53.15-53.88-53.15C526.8,140.17,502.88,163,502.88,192.16"/>
	<path class="st0" d="M534.54,81.81c16.6,0,24.33,8.48,24.33,26.68v6.68h-50.55c-1.13-4.25-1.36-7.09-1.36-10.26
		C506.97,90.87,517.79,81.81,534.54,81.81 M609.42,52.34c-2.99,8.68-20.96,18.73-34.08,26.07c-7.47,4.18-13.52,7.56-15.8,9.95
		c-4.85-12.58-14.85-20.06-26.92-20.06c-18.24,0-30.03,14.02-30.03,35.71c0,1.52,0.06,4.01,0.13,6.65c0.08,3.03,0.17,6.46,0.17,8.87
		c0,6.54,0,9.24-0.3,14.3c0,0.12,0.04,0.26,0.13,0.36c0.09,0.1,0.22,0.15,0.35,0.15h0.74c0.24,0,0.44-0.17,0.48-0.41
		c0.79-5.07,2.77-6.76,12.96-6.76h79.32c11.82,0,12.13,1.92,12.96,7.06c0.04,0.23,0.24,0.41,0.48,0.41h0.74
		c0.13,0,0.26-0.06,0.35-0.15c0.09-0.1,0.16-0.22,0.13-0.36c-0.14-3.01-0.3-7.21-0.3-12.96c0-6.12,0.21-11.11,0.3-12.96
		c0.02-0.14-0.04-0.26-0.13-0.36c-0.09-0.09-0.22-0.15-0.35-0.15h-0.74c-0.24,0-0.44,0.17-0.48,0.41
		c-0.83,5.14-1.14,7.06-12.96,7.06h-33.64v-9.07c0-1.63-0.18-3.7-0.54-6.15c2.49-2.62,8.23-5.67,11.69-7.51
		c0.72-0.39,1.37-0.73,1.89-1.01c32.82-17.48,34.8-19.45,35.41-35.2c0-1.8,0-2.41-0.15-3.79c-0.03-0.25-0.23-0.43-0.48-0.43h-0.88
		C609.67,52.01,609.49,52.14,609.42,52.34"/>
	<path class="st0" d="M503.33,242.07c-0.15-0.05-0.31-0.02-0.44,0.08c-0.13,0.09-0.21,0.24-0.2,0.4c0.18,9.87,0.76,42.98-0.03,76.7
		c-0.02,0.22,0.15,0.43,0.37,0.48c2.71,0.66,5.02,1.33,7.25,1.97c2.74,0.79,5.34,1.54,8.05,2.08c0.14,0.03,0.29-0.01,0.4-0.1
		c0.11-0.09,0.18-0.23,0.18-0.38v-0.74c0-0.19-0.11-0.36-0.28-0.44c-9.1-4.27-9.17-11.15-9.17-33.78h87.08
		c11.83,0,12.14,1.9,12.96,6.97c0.04,0.24,0.24,0.41,0.48,0.41h0.74c0.13,0,0.26-0.06,0.35-0.15c0.09-0.1,0.14-0.22,0.13-0.36
		c-0.14-2.99-0.29-7.15-0.29-12.82c0-6.04,0.21-10.98,0.29-12.83v-0.02c0-0.12-0.05-0.24-0.13-0.33c-0.09-0.1-0.22-0.15-0.35-0.15
		h-0.74c-0.24,0-0.44,0.17-0.48,0.41c-0.82,5.07-1.13,6.97-12.96,6.97h-87.08c0.01-25.97,1.02-29.45,4.98-29.45
		c0.72,0,1.58,0.15,2.1,0.28c0.14,0.04,0.3,0,0.41-0.09c0.12-0.09,0.19-0.23,0.19-0.38v-0.89c0-0.24-0.17-0.44-0.4-0.48
		C514.42,245.02,507.31,243.34,503.33,242.07"/>
	<path class="st0" d="M502.71,389.69c0.14,2.87,0.28,8.59,0.28,13.53c0,5.18-0.14,11.01-0.28,14.1c-0.02,0.12,0.04,0.26,0.13,0.36
		c0.09,0.1,0.22,0.15,0.35,0.15h0.71c0.24,0,0.44-0.17,0.48-0.41c0.81-5.11,1.35-8.48,12.5-8.48h64.38
		c12.13,0,25.23,5.8,25.23,15.17c0,1.71-0.13,3.34-0.39,4.93c-1.61,6.53-6.16,10.55-9.43,13.02c-0.46,0.35-0.92,0.68-1.38,0.98
		c-3.96,2.69-7.48,3.92-7.63,3.98c-0.32,0.11-0.5,0.42-0.44,0.78c0.08,0.33,0.39,0.55,0.74,0.51l16.93-2.17
		c0.22,0,0.43-0.12,0.54-0.3c3.95-6.08,5.14-13.67,5.26-15.11l0.03,0.01c0.37-2.43,0.46-4.39,0.46-5.64c0-0.95-0.05-1.49-0.05-1.53
		c0-15.59-12.64-26.07-31.47-26.07h-62.76c-10.82,0-11.36-2.57-12.45-7.68l-0.06-0.27c-0.05-0.22-0.25-0.38-0.48-0.38h-0.71
		c-0.13,0-0.26,0.05-0.35,0.15C502.75,389.43,502.69,389.56,502.71,389.69"/>
	<polygon class="st1" points="657.13,448.64 657.13,51.32 724.74,51.32 724.74,380.87 871.26,380.87 871.26,448.64 	"/>
	<path class="st1" d="M1044.86,310.14c-32.37,4.42-55.99,11.46-70.85,21.1c-14.86,9.64-22.29,22.69-22.29,39.14
		c0,9.73,2.65,17.25,7.96,22.56c5.3,5.3,12.82,7.96,22.55,7.96c10.61,0,21.1-2.47,31.45-7.43c10.35-4.95,20.74-12.47,31.18-22.56
		V310.14z M1052.29,448.65l-5.84-24.95c-12.91,9.38-26.45,16.41-40.6,21.1c-14.16,4.68-28.92,7.03-44.31,7.03
		c-23.71,0-42.33-6.72-55.86-20.17c-13.54-13.44-20.3-32.02-20.3-55.73c0-31.13,13.04-55.68,39.14-73.64
		c26.09-17.95,66.91-30.38,122.46-37.28v-22.29c0-10.44-3.49-18.48-10.48-24.15c-6.99-5.66-16.94-8.49-29.85-8.49
		c-12.92,0-24.64,2.75-35.16,8.23c-10.53,5.49-19.59,13.62-27.2,24.41l-45.64-28.92c11.85-18.4,26.89-32.24,45.11-41.53
		c18.22-9.29,39.53-13.93,63.95-13.93c32.9,0,58.56,7.43,76.95,22.29c18.4,14.86,27.6,35.56,27.6,62.09v167.44
		c0,4.42,0.35,9.77,1.06,16.05c0.7,6.28,1.77,13.76,3.18,22.42H1052.29z"/>
	<path class="st1" d="M1210.65,373.03c8.84,8.67,17.29,14.9,25.34,18.71c8.05,3.8,16.41,5.7,25.08,5.7
		c19.28,0,34.18-7.92,44.71-23.75c10.53-15.83,15.79-38.35,15.79-67.54c0-29.01-5.3-51.65-15.92-67.93
		c-10.62-16.27-25.3-24.41-44.04-24.41c-8.5,0-16.76,1.9-24.81,5.7c-8.05,3.81-16.76,9.86-26.14,18.18V373.03z M1141.67,448.65
		c1.06-15.03,1.85-28.13,2.39-39.27c0.53-11.15,0.8-20.17,0.8-27.07V51.32h65.8v139.67c10.09-11.5,20.61-19.81,31.57-24.94
		c10.97-5.13,23.62-7.7,37.95-7.7c32.02,0,58.15,13.63,78.41,40.87c20.26,27.25,30.39,62.89,30.39,106.93
		c0,43.88-10.31,79.48-30.92,106.81c-20.61,27.33-47.27,41-80.01,41c-15.21,0-28.97-2.83-41.26-8.49
		c-12.3-5.66-24.28-14.77-35.96-27.33l-7.16,30.52H1141.67z"/>
	<path class="st1" d="M1396.33,396.91l45.64-35.82c10.79,13.98,21.49,24.28,32.11,30.91c10.6,6.64,21.66,9.95,33.16,9.95
		c12.2,0,21.86-2.83,28.92-8.49c7.08-5.66,10.62-13.35,10.62-23.09c0-14.33-14.94-26.97-44.84-37.94c-3.19-1.24-5.58-2.21-7.17-2.92
		c-35.56-13.44-59.3-26.44-71.26-39.01c-11.94-12.56-17.9-28.83-17.9-48.82c0-24.42,9.06-44.4,27.19-59.97
		c18.13-15.56,41.71-23.35,70.72-23.35c19.46,0,37.02,3.54,52.68,10.61c15.65,7.08,30.12,18.04,43.38,32.91l-42.45,36.88
		c-9.2-9.73-18.36-16.94-27.46-21.63c-9.11-4.69-18.45-7.03-28-7.03c-11.32,0-20.2,2.52-26.67,7.56c-6.45,5.04-9.67,11.9-9.67,20.56
		c0,10.62,14.93,21.5,44.84,32.64c7.95,3.01,14.23,5.4,18.83,7.17c30.26,11.67,50.86,24.01,61.83,37.01
		c10.97,13,16.45,30.39,16.45,52.14c0,26.36-9.07,47.55-27.2,63.55c-18.14,16.01-42.23,24.01-72.31,24.01
		c-23.53,0-44.23-4.64-62.1-13.93C1427.82,431.54,1411.36,416.9,1396.33,396.91"/>
</g>
</svg>
